<?xml version="1.0" standalone="no"?>
<!DOCTYPE svg PUBLIC "-//W3C//DTD SVG 20010904//EN"
 "http://www.w3.org/TR/2001/REC-SVG-20010904/DTD/svg10.dtd">
<svg version="1.0" xmlns="http://www.w3.org/2000/svg"
 width="700.000000pt" height="700.000000pt" viewBox="0 0 700.000000 700.000000"
 preserveAspectRatio="xMidYMid meet">
<metadata>
Created by potrace 1.14, written by Peter Selinger 2001-2017
</metadata>
<g transform="translate(0.000000,700.000000) scale(0.100000,-0.100000)"
fill="#000000" stroke="none">
<path d="M0 3500 l0 -3500 3500 0 3500 0 0 3500 0 3500 -3500 0 -3500 0 0
-3500z m3805 695 c0 -30 -39 -27 -43 3 -3 20 0 23 20 20 15 -2 23 -10 23 -23z
m131 14 c3 -6 -1 -18 -10 -27 -15 -15 -17 -15 -32 0 -19 19 -11 38 16 38 10 0
22 -5 26 -11z m-2068 -61 c14 -14 16 -116 3 -136 -5 -8 -17 -12 -27 -10 -16 3
-20 14 -22 66 -4 78 15 111 46 80z m-701 -114 c66 -33 110 -87 120 -147 l6
-37 -75 0 -74 0 -9 33 c-29 95 -225 82 -225 -15 0 -42 35 -68 141 -106 172
-62 239 -127 239 -233 -1 -125 -96 -199 -255 -199 -159 0 -277 76 -292 189
l-6 41 77 0 c70 0 76 -2 76 -21 0 -55 55 -92 138 -92 70 0 106 25 110 76 4 49
-26 76 -126 112 -108 39 -162 68 -199 107 -58 60 -68 130 -32 206 55 113 246
156 386 86z m1383 -274 l0 -300 160 0 160 0 0 -60 0 -60 -235 0 -235 0 0 353
c0 195 3 357 7 360 3 4 37 7 75 7 l68 0 0 -300z m896 -60 c74 -195 134 -356
134 -357 0 -2 -36 -3 -79 -3 l-79 0 -24 73 -25 72 -129 0 -129 0 -25 -72 -25
-73 -78 0 c-59 0 -78 3 -75 13 3 6 63 169 134 360 l129 348 69 -3 69 -3 133
-355z m609 337 c53 -24 102 -72 116 -115 31 -95 -1 -212 -72 -259 -22 -14 -39
-27 -39 -29 0 -2 34 -67 75 -144 41 -77 75 -142 75 -145 0 -3 -36 -5 -80 -5
l-80 0 -65 130 -65 130 -60 0 -60 0 0 -130 0 -130 -75 0 -75 0 0 361 0 361
183 -4 c146 -3 190 -7 222 -21z m983 -39 l3 -58 -171 0 -170 0 0 -85 0 -84
143 -3 142 -3 3 -57 3 -58 -146 0 -145 0 0 -95 0 -95 168 -2 167 -3 3 -57 3
-58 -246 0 -245 0 0 360 0 360 243 -2 242 -3 3 -57z m273 -58 c35 -66 68 -118
72 -117 4 1 36 54 71 117 l63 115 88 3 88 3 -15 -23 c-8 -13 -56 -94 -107
-180 l-92 -157 105 -178 105 -178 -82 -3 c-95 -3 -83 -13 -163 136 -30 56 -58
102 -62 102 -4 0 -36 -54 -72 -120 l-64 -120 -84 0 c-74 0 -83 2 -78 16 4 9
49 88 101 174 52 87 95 163 95 170 0 6 -45 88 -100 181 -55 93 -100 172 -100
174 0 3 38 5 84 5 l83 0 64 -120z m939 60 l0 -60 -165 0 -165 0 0 -85 0 -85
140 0 140 0 0 -60 0 -60 -140 0 -140 0 0 -95 0 -95 165 0 165 0 0 -60 0 -60
-240 0 -240 0 0 360 0 360 240 0 240 0 0 -60z m-4681 -34 c29 -29 42 -50 38
-60 -10 -24 -33 -19 -72 15 -40 36 -59 65 -50 79 13 21 42 8 84 -34z m647 33
c7 -13 -84 -109 -103 -109 -32 0 -24 33 18 76 42 43 71 55 85 33z m-240 -73
c134 -62 205 -209 169 -348 -49 -194 -251 -289 -432 -202 -104 50 -167 151
-167 270 -1 126 68 230 185 284 65 29 178 27 245 -4z m-488 -255 c8 -5 12 -17
10 -27 -3 -16 -14 -19 -69 -22 -52 -2 -69 1 -80 14 -11 14 -11 18 6 30 21 15
112 19 133 5z m857 -5 c17 -12 17 -16 6 -30 -11 -13 -28 -16 -80 -14 -55 3
-66 6 -69 22 -2 10 2 22 10 27 21 14 112 10 133 -5z m-738 -272 c4 -11 -11
-33 -45 -67 -49 -49 -53 -51 -69 -34 -16 16 -15 20 32 67 52 52 72 61 82 34z
m568 -34 c47 -47 48 -51 32 -67 -16 -17 -20 -15 -69 34 -34 34 -49 56 -45 67
10 27 30 18 82 -34z m-300 -111 c0 -125 33 -155 199 -181 132 -20 166 -22 166
-7 0 25 46 73 88 91 37 17 57 19 111 14 36 -4 76 -9 88 -13 18 -4 25 1 33 22
7 17 16 25 28 23 14 -3 17 -14 16 -55 l-2 -51 76 -11 c82 -12 98 -21 89 -45
-7 -18 -29 -20 -111 -6 -33 5 -61 9 -62 7 -1 -1 -5 -32 -9 -68 l-7 -67 63 -7
c100 -12 120 -22 100 -54 -7 -11 -22 -12 -86 -2 -43 6 -80 9 -83 6 -3 -3 -8
-24 -11 -48 -5 -34 -10 -43 -28 -45 -22 -3 -25 0 -27 38 -1 11 -21 18 -71 26
-39 6 -81 14 -95 18 -50 16 -110 90 -110 135 0 24 -4 25 -158 46 -132 18 -181
39 -219 96 -46 69 -42 226 5 217 14 -3 17 -15 17 -79z"/>
<path d="M3202 3750 c-23 -69 -42 -128 -42 -133 0 -4 39 -7 86 -7 77 0 85 2
80 18 -3 9 -23 69 -44 132 l-39 115 -41 -125z"/>
<path d="M3800 3830 l0 -110 73 0 c95 0 137 20 156 75 12 35 11 45 -2 78 -21
49 -64 67 -157 67 l-70 0 0 -110z"/>
<path d="M1780 3891 c-137 -42 -210 -183 -168 -323 15 -51 77 -121 131 -147
47 -23 128 -28 188 -11 90 25 169 137 169 241 0 161 -167 286 -320 240z"/>
<path d="M2355 3106 c-43 -19 -66 -49 -72 -94 -6 -48 16 -96 56 -116 24 -13
131 -36 167 -36 6 0 16 42 23 103 7 56 14 109 17 118 4 13 -6 18 -48 23 -29 4
-66 9 -83 11 -16 3 -43 -1 -60 -9z"/>
</g>
</svg>
